<?xml version="1.0" standalone="no"?>
<!DOCTYPE svg PUBLIC "-//W3C//DTD SVG 20010904//EN"
 "http://www.w3.org/TR/2001/REC-SVG-20010904/DTD/svg10.dtd">
<svg version="1.0" xmlns="http://www.w3.org/2000/svg"
 width="322.000000pt" height="272.000000pt" viewBox="0 0 322.000000 272.000000"
 preserveAspectRatio="xMidYMid meet">

<g transform="translate(0.000000,272.000000) scale(0.100000,-0.100000)"
fill="#f0f0f0" stroke="#000000">
<path d="M0 1360 l0 -1360 1610 0 1610 0 0 1360 0 1360 -1610 0 -1610 0 0
-1360z m1982 660 c188 -311 388 -641 446 -735 57 -93 106 -173 109 -177 2 -4
-78 -7 -179 -7 -183 0 -258 -7 -398 -36 -346 -71 -778 -310 -1039 -575 -68
-69 -188 -216 -266 -324 l-47 -66 -210 0 -210 0 65 122 c190 362 427 624 757
837 235 152 617 311 893 372 35 7 57 17 55 24 -2 7 -73 125 -158 263 l-155
251 -80 -160 -81 -161 -114 -47 c-63 -26 -188 -85 -278 -130 l-163 -82 17 33
c24 48 623 1127 647 1167 19 32 21 33 34 15 8 -11 168 -273 355 -584z m747
-1310 c70 -113 184 -296 253 -407 l127 -203 -173 0 -173 0 -201 323 c-262 423
-291 471 -286 476 8 9 141 18 232 17 l94 -1 127 -205z m-793 33 c26 -43 126
-203 221 -355 95 -153 173 -280 173 -283 0 -3 -76 -5 -170 -5 -165 0 -170 1
-184 22 -166 267 -366 589 -366 592 0 4 168 78 215 94 54 19 61 15 111 -65z
m-618 -270 c16 -27 75 -118 131 -204 55 -87 101 -160 101 -163 0 -3 -77 -6
-170 -6 l-170 0 -74 113 -73 112 36 39 c40 43 172 156 183 156 3 0 20 -21 36
-47z"/>
</g>
</svg>
