<?xml version="1.0" standalone="no"?>
<!DOCTYPE svg PUBLIC "-//W3C//DTD SVG 20010904//EN"
 "http://www.w3.org/TR/2001/REC-SVG-20010904/DTD/svg10.dtd">
<svg version="1.0" xmlns="http://www.w3.org/2000/svg"
 width="124.000000pt" height="121.000000pt" viewBox="0 0 124.000000 121.000000"
 preserveAspectRatio="xMidYMid meet">

<g transform="translate(0.000000,121.000000) scale(0.100000,-0.100000)"
fill="#000000" stroke="none">
<path d="M0 605 l0 -605 620 0 620 0 0 605 0 605 -620 0 -620 0 0 -605z m801
475 c129 -25 246 -112 300 -224 43 -91 52 -151 47 -331 -4 -129 -9 -170 -25
-211 -44 -113 -131 -202 -240 -246 -54 -21 -72 -23 -263 -23 l-205 0 -66 31
c-118 56 -204 156 -234 271 -20 75 -21 356 -1 428 40 152 171 273 327 304 63
12 296 13 360 1z"/>
<path d="M435 1026 c-115 -29 -216 -113 -257 -213 -21 -54 -23 -72 -23 -258 0
-195 1 -201 26 -255 33 -69 109 -146 175 -176 78 -37 154 -47 309 -42 115 4
151 9 200 28 81 31 163 110 201 193 29 62 29 63 29 257 l0 195 -31 65 c-54
114 -149 186 -274 210 -72 14 -294 11 -355 -4z m495 -491 l-35 -35 -135 135
-135 135 -137 -137 -138 -137 -35 34 -35 34 172 173 173 173 170 -170 170
-170 -35 -35z m2 -218 l31 -38 -29 -30 c-15 -16 -32 -29 -38 -29 -6 0 -70 60
-143 132 l-133 133 -135 -135 -135 -134 -35 34 -35 34 172 173 173 173 138
-138 c76 -75 152 -154 169 -175z"/>
</g>
</svg>
