<?xml version="1.0" standalone="no"?>
<!DOCTYPE svg PUBLIC "-//W3C//DTD SVG 20010904//EN"
 "http://www.w3.org/TR/2001/REC-SVG-20010904/DTD/svg10.dtd">
<svg version="1.0" xmlns="http://www.w3.org/2000/svg"
 width="225.000000pt" height="225.000000pt" viewBox="0 0 225.000000 225.000000"
 preserveAspectRatio="xMidYMid meet">

<g transform="translate(0.000000,225.000000) scale(0.100000,-0.100000)"
fill="#000000" stroke="none">
<path d="M0 1125 l0 -1125 1125 0 1125 0 0 1125 0 1125 -1125 0 -1125 0 0
-1125z m1062 653 l54 -187 48 197 c27 108 52 202 55 207 3 6 8 -86 11 -204 l5
-213 104 186 c57 103 105 185 106 184 1 -2 -19 -91 -46 -198 -27 -107 -48
-199 -49 -205 0 -5 68 60 151 145 89 92 143 141 131 120 -11 -19 -48 -87 -82
-150 -35 -63 -74 -134 -88 -158 l-24 -43 166 100 c91 55 176 106 188 112 13 7
-44 -59 -127 -146 -82 -87 -143 -156 -135 -153 44 16 382 109 385 106 3 -2
-57 -41 -133 -86 -75 -45 -155 -93 -177 -107 l-40 -25 212 2 c116 2 209 1 206
-2 -2 -3 -93 -30 -201 -61 -107 -30 -191 -58 -186 -61 5 -3 97 -27 204 -54
l195 -49 -203 -6 c-111 -3 -204 -8 -207 -10 -2 -3 76 -49 175 -104 98 -55 177
-101 175 -103 -1 -2 -92 20 -201 47 -109 27 -200 48 -202 47 -1 -2 65 -68 147
-147 83 -79 149 -144 147 -146 -2 -2 -87 44 -190 101 -102 57 -184 101 -182
98 73 -121 210 -350 214 -357 9 -18 -50 36 -181 165 -71 69 -127 116 -124 105
4 -11 29 -100 56 -197 28 -97 51 -182 51 -189 0 -7 -50 71 -110 172 l-111 184
3 -212 c2 -117 0 -209 -4 -205 -3 4 -31 95 -61 202 -63 224 -48 228 -112 -30
-19 -80 -40 -154 -45 -165 -6 -13 -9 30 -10 130 -1 83 -5 176 -9 207 l-6 58
-99 -180 c-54 -99 -101 -179 -103 -177 -3 3 69 303 93 392 3 11 -62 -50 -145
-135 -84 -85 -146 -144 -140 -130 7 14 52 97 101 184 48 87 87 161 85 162 -2
2 -81 -44 -177 -101 -95 -58 -175 -104 -176 -102 -1 1 63 71 143 155 80 84
139 150 132 148 -8 -3 -95 -28 -194 -56 -99 -28 -186 -53 -192 -55 -34 -12 1
12 150 101 89 54 171 104 182 111 17 12 -11 13 -195 7 -118 -4 -212 -4 -209 0
4 4 97 33 208 64 l201 58 -198 48 c-108 27 -201 52 -207 55 -5 3 86 8 203 11
l212 5 -171 95 c-95 52 -179 100 -188 107 -9 6 72 -10 179 -37 107 -27 200
-50 206 -50 6 0 -55 64 -136 143 -81 78 -148 145 -149 149 0 3 80 -39 180 -94
99 -55 182 -99 184 -97 1 2 -44 82 -101 177 -57 95 -104 176 -104 180 0 4 51
-43 113 -103 61 -61 131 -128 154 -149 l41 -38 -58 203 c-32 112 -57 205 -56
207 2 1 52 -79 111 -178 59 -99 109 -180 112 -180 2 0 1 96 -2 213 -4 141 -2
205 4 192 6 -11 34 -104 63 -207z"/>
<path d="M1171 1672 l-25 -103 -30 3 c-30 3 -32 6 -56 93 l-25 90 -5 -99 c-5
-91 -7 -99 -28 -107 -24 -9 -28 -4 -97 114 -15 26 -29 46 -31 45 -1 -2 8 -41
22 -88 29 -103 29 -104 2 -117 -21 -10 -31 -3 -101 66 l-79 76 38 -65 c20 -36
46 -78 57 -93 20 -29 20 -29 -1 -50 l-21 -21 -53 29 c-29 15 -69 37 -88 48
-29 16 -23 8 33 -49 37 -38 67 -74 67 -80 0 -6 -6 -18 -12 -27 -12 -15 -20
-15 -108 8 -52 13 -95 23 -97 22 -1 -2 38 -25 88 -52 58 -33 87 -55 84 -63 -3
-8 -5 -20 -5 -28 0 -11 -22 -14 -107 -15 l-108 -1 100 -26 c98 -26 100 -28
100 -56 0 -28 -3 -30 -95 -57 l-95 -27 102 -1 c101 -1 103 -1 109 -26 4 -14 5
-28 3 -29 -2 -2 -42 -27 -89 -55 -47 -28 -81 -51 -77 -51 4 0 49 12 99 27 88
27 91 27 104 8 8 -10 14 -23 14 -28 0 -5 -32 -43 -72 -83 l-72 -75 93 57 c94
56 94 56 114 36 21 -22 24 -14 -66 -172 -16 -28 -4 -20 56 39 70 69 78 74 101
63 l24 -11 -23 -93 c-13 -51 -22 -94 -21 -96 2 -2 25 35 50 82 26 48 49 86 51
86 2 0 15 -4 29 -10 25 -9 26 -12 27 -107 l1 -98 25 98 c24 94 26 97 53 97 26
0 30 -5 45 -57 46 -163 44 -160 44 -41 1 107 1 108 26 114 14 4 27 5 29 3 2
-2 25 -41 51 -87 25 -45 48 -82 50 -82 2 0 -3 23 -11 50 -47 164 -45 146 -18
161 23 12 28 9 77 -37 99 -94 102 -94 46 -1 l-52 88 20 21 20 20 84 -47 c46
-26 89 -50 94 -52 6 -2 -26 29 -69 70 -80 74 -80 74 -63 100 l16 25 93 -23
c51 -13 93 -23 95 -21 1 1 -28 18 -65 39 -99 53 -105 58 -97 90 l7 27 102 1
101 1 -97 25 c-95 25 -98 26 -98 54 0 29 11 35 165 76 22 6 4 9 -74 13 -96 5
-104 7 -112 27 -7 20 1 28 84 78 51 30 90 55 87 55 -3 0 -49 -13 -102 -29
l-97 -29 -17 25 c-16 25 -15 26 57 101 41 41 63 69 49 61 -14 -9 -54 -32 -88
-53 l-64 -39 -20 21 -21 21 52 93 52 93 -78 -77 c-78 -77 -86 -81 -121 -53 -3
2 8 47 44 190 3 11 -17 -19 -43 -67 -27 -48 -51 -90 -55 -93 -3 -3 -17 -3 -31
1 -26 6 -26 7 -29 113 l-3 106 -24 -103z"/>
</g>
</svg>
