<?xml version="1.0" standalone="no"?>
<!DOCTYPE svg PUBLIC "-//W3C//DTD SVG 20010904//EN"
 "http://www.w3.org/TR/2001/REC-SVG-20010904/DTD/svg10.dtd">
<svg version="1.0" xmlns="http://www.w3.org/2000/svg"
 width="225.000000pt" height="225.000000pt" viewBox="0 0 225.000000 225.000000"
 preserveAspectRatio="xMidYMid meet">

<g transform="translate(0.000000,225.000000) scale(0.100000,-0.100000)"
fill="#000000" stroke="none">
<path d="M920 1950 c-229 -19 -420 -49 -447 -72 -22 -18 -14 -1026 8 -1084 40
-105 148 -231 299 -350 118 -93 328 -224 360 -224 18 0 220 139 335 230 181
145 287 271 320 384 20 68 23 1027 3 1044 -58 48 -615 93 -878 72z m324 -179
c3 -5 -1 -28 -9 -51 -26 -72 -27 -71 118 -133 l132 -56 0 -37 0 -36 -144 -59
c-79 -32 -148 -59 -152 -59 -5 0 -9 16 -9 36 0 33 3 36 53 58 28 12 71 28 95
36 23 7 42 18 42 24 0 9 -152 76 -172 76 -7 0 -34 -82 -108 -318 -18 -56 -36
-105 -41 -108 -6 -3 -7 4 -4 18 37 151 42 179 31 186 -6 4 -69 32 -141 62
-130 56 -130 56 -130 90 0 33 0 33 126 86 69 29 138 56 153 60 27 6 27 6 24
-32 l-3 -39 -92 -34 c-51 -19 -93 -37 -93 -40 1 -11 174 -81 180 -74 4 5 22
76 40 158 42 190 44 195 74 195 14 0 27 -4 30 -9z m-146 -1070 c2 -292 0 -342
-12 -338 -42 16 -210 129 -285 192 -111 92 -174 164 -213 244 -28 55 -32 75
-33 150 -1 52 2 89 9 93 6 5 128 7 271 5 l260 -2 3 -344z m612 256 c0 -80 -3
-99 -27 -146 -32 -63 -158 -200 -253 -276 -77 -61 -229 -165 -241 -165 -11 0
-12 663 -2 674 4 4 123 6 265 5 l258 -1 0 -91z"/>
<path d="M765 920 c-33 -10 -73 -21 -88 -24 -30 -7 -28 -26 2 -26 11 0 53 -12
95 -26 l76 -25 105 32 c58 18 102 35 98 39 -10 9 -186 50 -210 49 -10 0 -45
-9 -78 -19z"/>
<path d="M905 819 c-46 -18 -53 -18 -94 -4 -60 20 -71 19 -71 -8 0 -40 85 -74
153 -62 44 9 77 38 77 70 0 30 -1 30 -65 4z"/>
<path d="M1526 897 c-8 -12 -19 -38 -26 -58 -20 -56 -37 -75 -57 -63 -29 18
-38 41 -27 71 8 23 15 28 44 28 35 0 53 12 44 27 -3 4 -25 8 -50 8 -36 0 -50
-5 -69 -26 -57 -61 -16 -144 70 -144 46 0 46 0 67 50 23 56 29 55 47 -7 10
-36 16 -43 37 -43 17 0 24 4 20 13 -2 6 -15 44 -28 84 -25 79 -48 98 -72 60z"/>
<path d="M1220 825 c0 -85 0 -85 26 -85 23 0 25 3 20 25 -4 14 -2 25 3 25 5 0
16 -11 25 -25 10 -16 26 -25 41 -25 30 0 32 11 5 35 -21 19 -26 50 -10 60 14
9 13 48 -2 63 -7 7 -34 12 -60 12 l-48 0 0 -85z m75 34 c0 -7 -8 -15 -17 -17
-18 -3 -25 18 -11 32 10 10 28 1 28 -15z"/>
</g>
</svg>
